<svg width="550" height="555" xmlns="http://www.w3.org/2000/svg" xmlns:xlink="http://www.w3.org/1999/xlink" xml:space="preserve" overflow="hidden"><defs><clipPath id="clip0"><path d="M2054.41 1043.91 2171.08 1160.58 2054.41 1277.26 1937.74 1160.58Z" fill-rule="nonzero" clip-rule="nonzero"/></clipPath><clipPath id="clip1"><path d="M2054.41 1043.91 2171.08 1160.58 2054.41 1277.26 1937.74 1160.58Z" fill-rule="evenodd" clip-rule="evenodd"/></clipPath><clipPath id="clip2"><path d="M2054.41 1043.91 2171.08 1160.58 2054.41 1277.26 1937.74 1160.58Z" fill-rule="evenodd" clip-rule="evenodd"/></clipPath></defs><g transform="translate(-1796 -870)"><g><path d="M1797.5 1158.06 2294.27 1158.06 2294.27 1164.94 1797.5 1164.94ZM2289.69 1147.75 2317.19 1161.5 2289.69 1175.25Z" fill="#7F7F7F" fill-rule="nonzero" fill-opacity="1"/><path d="M3.4375-2.38715e-06 3.43784 496.768-3.43716 496.768-3.4375 2.38715e-06ZM13.7503 492.185 0.000360892 519.685-13.7497 492.185Z" fill="#7F7F7F" fill-rule="nonzero" fill-opacity="1" transform="matrix(1 0 0 -1 2057.5 1421.19)"/><path d="M1937.74 1043.91C2037.9 943.752 2171.33 914.793 2235.77 979.229 2300.2 1043.67 2271.24 1177.1 2171.08 1277.26 2070.92 1377.42 1937.49 1406.38 1873.06 1341.94 1808.62 1277.5 1837.58 1144.07 1937.74 1043.91Z" stroke="#042433" stroke-width="6.875" stroke-linecap="butt" stroke-linejoin="miter" stroke-miterlimit="8" stroke-opacity="1" fill="#0070C0" fill-rule="evenodd" fill-opacity="0.309804"/><path d="M1962.8 1068.97C2041.45 990.332 2146.21 967.594 2196.81 1018.19 2247.4 1068.78 2224.66 1173.55 2146.02 1252.19 2067.38 1330.84 1962.61 1353.57 1912.02 1302.98 1861.42 1252.39 1884.16 1147.62 1962.8 1068.97Z" stroke="#042433" stroke-width="6.875" stroke-linecap="butt" stroke-linejoin="miter" stroke-miterlimit="8" stroke-opacity="1" fill="#0070C0" fill-rule="evenodd" fill-opacity="0.611765"/><path d="M1986.44 1092.62C2044.79 1034.27 2122.52 1017.4 2160.06 1054.93 2197.6 1092.47 2180.73 1170.2 2122.38 1228.55 2064.03 1286.9 1986.3 1303.77 1948.76 1266.23 1911.23 1228.69 1928.1 1150.96 1986.44 1092.62Z" stroke="#042433" stroke-width="6.875" stroke-linecap="butt" stroke-linejoin="miter" stroke-miterlimit="8" stroke-opacity="1" fill="#0070C0" fill-rule="evenodd" fill-opacity="1"/><g clip-path="url(#clip0)"><g clip-path="url(#clip1)"><g clip-path="url(#clip2)"><path d="M2078.72 1184.89C2093.15 1170.46 2088.91 1153.28 2083.75 1136.45 2100.58 1141.61 2117.77 1145.84 2132.19 1131.42L2129.76 1128.98C2126.87 1131.94 2123.4 1134.26 2119.57 1135.81L2079.19 1095.43C2080.73 1091.59 2083.05 1088.12 2086.01 1085.23L2083.58 1082.8C2069.15 1097.23 2073.38 1114.41 2078.55 1131.24 2061.72 1126.08 2044.53 1121.85 2030.1 1136.28 2015.68 1150.7 2019.91 1167.89 2025.07 1184.72 2008.24 1179.56 1991.06 1175.32 1976.63 1189.75L1979.06 1192.18C1981.95 1189.23 1985.42 1186.9 1989.25 1185.36L2029.63 1225.74C2028.09 1229.57 2025.77 1233.05 2022.81 1235.93L2025.24 1238.37C2039.67 1223.94 2035.44 1206.75 2030.28 1189.92 2047.11 1195.09 2064.29 1199.32 2078.72 1184.89ZM2078 1099.1 2115.9 1136.99C2105.58 1139.48 2094.28 1136.12 2082.52 1132.47 2078.88 1120.72 2075.51 1109.41 2078 1099.1ZM2079.77 1135.22C2083.42 1146.97 2086.79 1158.28 2084.3 1168.59L2046.4 1130.7C2056.72 1128.21 2068.02 1131.58 2079.77 1135.22ZM2042.73 1131.89 2083.11 1172.27C2079.91 1179.96 2073.79 1186.08 2066.09 1189.28L2025.71 1148.9C2028.91 1141.2 2035.03 1135.09 2042.73 1131.89ZM2030.82 1222.07 1992.93 1184.17C2003.24 1181.68 2014.55 1185.05 2026.3 1188.7 2029.94 1200.45 2033.31 1211.75 2030.82 1222.07ZM2029.05 1185.95C2025.4 1174.19 2022.04 1162.89 2024.53 1152.57L2062.42 1190.47C2052.11 1192.96 2040.8 1189.59 2029.05 1185.95Z" stroke="#B5A370" stroke-width="1.71893" stroke-linecap="butt" stroke-linejoin="miter" stroke-miterlimit="4" stroke-opacity="1" fill="#B5A370" fill-rule="nonzero" fill-opacity="1"/></g></g></g></g></g></svg>